# Blender 4.3.2
# www.blender.org
mtllib slot(1).mtl
o slot3
v -0.228573 -0.000000 -0.462241
v 0.228573 0.000000 -0.462241
v -0.228573 -0.361395 -0.288203
v 0.228573 -0.361394 -0.288203
v -0.228573 -0.450652 0.102858
v 0.228573 -0.450652 0.102858
v -0.228573 -0.200559 0.416465
v 0.228573 -0.200559 0.416465
v -0.228573 0.200559 0.416465
v 0.228573 0.200559 0.416465
v -0.228573 0.450652 0.102858
v 0.228573 0.450652 0.102858
v -0.228573 0.361394 -0.288203
v 0.228573 0.361395 -0.288203
vn -0.0000 -0.4339 -0.9010
vn -0.0000 -0.9749 -0.2225
vn -0.0000 -0.7818 0.6235
vn -0.0000 -0.0000 1.0000
vn -0.0000 0.7818 0.6235
vn 1.0000 -0.0000 -0.0000
vn -0.0000 0.9749 -0.2225
vn -0.0000 0.4339 -0.9010
vn -1.0000 -0.0000 -0.0000
vt 0.284404 0.516427
vt 0.511164 0.516427
vt 0.511164 0.715395
vt 0.284404 0.715395
vt 0.511164 0.914363
vt 0.284404 0.914363
vt 0.026295 0.162978
vt 0.253055 0.162978
vt 0.253055 0.361946
vt 0.026295 0.361946
vt 0.253055 0.560914
vt 0.026295 0.560914
vt 0.253055 0.759881
vt 0.026295 0.759881
vt 0.975829 0.355816
vt 0.820270 0.479870
vt 0.626291 0.435596
vt 0.539962 0.256332
vt 0.626291 0.077068
vt 0.820270 0.032794
vt 0.975829 0.156848
vt 0.286280 0.065100
vt 0.513039 0.065100
vt 0.513039 0.264068
vt 0.286280 0.264068
vt 0.513039 0.463036
vt 0.286280 0.463036
vt 0.545401 0.629420
vt 0.700960 0.505365
vt 0.894939 0.549640
vt 0.981268 0.728904
vt 0.894939 0.908167
vt 0.700960 0.952442
vt 0.545401 0.828387
s 0
usemtl Material.002
f 1/1/1 2/2/1 4/3/1 3/4/1
f 3/4/2 4/3/2 6/5/2 5/6/2
f 5/7/3 6/8/3 8/9/3 7/10/3
f 7/10/4 8/9/4 10/11/4 9/12/4
f 9/12/5 10/11/5 12/13/5 11/14/5
f 4/15/6 2/16/6 14/17/6 12/18/6 10/19/6 8/20/6 6/21/6
f 11/22/7 12/23/7 14/24/7 13/25/7
f 13/25/8 14/24/8 2/26/8 1/27/8
f 1/28/9 3/29/9 5/30/9 7/31/9 9/32/9 11/33/9 13/34/9
