# Blender 4.3.2
# www.blender.org
mtllib coin(1).mtl
o coin
v 0.025029 -0.000000 -0.130809
v 0.025029 -0.092496 -0.092496
v 0.025029 -0.130809 0.000000
v 0.025029 -0.092496 0.092496
v 0.025029 -0.000000 0.130809
v 0.025029 0.092496 0.092496
v 0.025029 0.130809 0.000000
v 0.025029 0.092496 -0.092496
v 0.000000 0.000000 -0.150172
v -0.000000 -0.106188 -0.106188
v -0.000000 -0.150172 0.000000
v -0.000000 -0.106188 0.106188
v 0.000000 0.000000 0.150172
v 0.000000 0.106188 0.106188
v 0.000000 0.150172 0.000000
v 0.000000 0.106188 -0.106188
v 0.025029 -0.106188 -0.106188
v 0.025029 -0.000000 -0.150172
v 0.025029 -0.150172 0.000000
v 0.025029 -0.106188 0.106188
v 0.025029 -0.000000 0.150172
v 0.025029 0.106188 0.106188
v 0.025029 0.150172 0.000000
v 0.025029 0.106188 -0.106188
v 0.016750 -0.041894 -0.041894
v 0.016750 -0.000000 -0.059248
v 0.016750 -0.059248 0.000000
v 0.016750 -0.041894 0.041894
v 0.016750 -0.000000 0.059248
v 0.016750 0.041894 0.041894
v 0.016750 0.059248 0.000000
v 0.016750 0.041894 -0.041894
v 0.016750 -0.092496 -0.092496
v 0.016750 -0.000000 -0.130809
v 0.016750 -0.130809 0.000000
v 0.016750 -0.092496 0.092496
v 0.016750 -0.000000 0.130809
v 0.016750 0.092496 0.092496
v 0.016750 0.130809 0.000000
v 0.016750 0.092496 -0.092496
v 0.016750 -0.067228 -0.067228
v 0.016750 -0.000000 -0.095075
v 0.016750 -0.095075 0.000000
v 0.016750 -0.067228 0.067228
v 0.016750 -0.000000 0.095075
v 0.016750 0.067228 0.067228
v 0.016750 0.095075 0.000000
v 0.016750 0.067228 -0.067228
v 0.025029 -0.095075 0.000000
v 0.025029 -0.067228 -0.067228
v 0.025029 -0.067228 0.067228
v 0.025029 -0.000000 0.095075
v 0.025029 0.067228 0.067228
v 0.025029 0.095075 0.000000
v 0.025029 0.067228 -0.067228
v 0.025029 -0.059248 0.000000
v 0.025029 -0.041894 -0.041894
v 0.025029 -0.041894 0.041894
v 0.025029 -0.000000 0.059248
v 0.025029 0.041894 0.041894
v 0.025029 0.059248 0.000000
v 0.025029 0.041894 -0.041894
v -0.025029 0.000000 -0.130809
v -0.025029 -0.092496 -0.092496
v -0.025029 -0.130809 0.000000
v -0.025029 -0.092496 0.092496
v -0.025029 0.000000 0.130809
v -0.025029 0.092496 0.092496
v -0.025029 0.130809 0.000000
v -0.025029 0.092496 -0.092496
v -0.025029 -0.106188 -0.106188
v -0.025029 0.000000 -0.150172
v -0.025029 -0.150172 0.000000
v -0.025029 -0.106188 0.106188
v -0.025029 0.000000 0.150172
v -0.025029 0.106188 0.106188
v -0.025029 0.150172 0.000000
v -0.025029 0.106188 -0.106188
v -0.016750 -0.041894 -0.041894
v -0.016750 0.000000 -0.059248
v -0.016750 -0.059248 0.000000
v -0.016750 -0.041894 0.041894
v -0.016750 0.000000 0.059248
v -0.016750 0.041894 0.041894
v -0.016750 0.059248 0.000000
v -0.016750 0.041894 -0.041894
v -0.016750 -0.092496 -0.092496
v -0.016750 0.000000 -0.130809
v -0.016750 -0.130809 0.000000
v -0.016750 -0.092496 0.092496
v -0.016750 0.000000 0.130809
v -0.016750 0.092496 0.092496
v -0.016750 0.130809 0.000000
v -0.016750 0.092496 -0.092496
v -0.016750 -0.067228 -0.067228
v -0.016750 0.000000 -0.095075
v -0.016750 -0.095075 0.000000
v -0.016750 -0.067228 0.067228
v -0.016750 0.000000 0.095075
v -0.016750 0.067228 0.067228
v -0.016750 0.095075 0.000000
v -0.016750 0.067228 -0.067228
v -0.025029 -0.095075 0.000000
v -0.025029 -0.067228 -0.067228
v -0.025029 -0.067228 0.067228
v -0.025029 0.000000 0.095075
v -0.025029 0.067228 0.067228
v -0.025029 0.095075 0.000000
v -0.025029 0.067228 -0.067228
v -0.025029 -0.059248 0.000000
v -0.025029 -0.041894 -0.041894
v -0.025029 -0.041894 0.041894
v -0.025029 0.000000 0.059248
v -0.025029 0.041894 0.041894
v -0.025029 0.059248 0.000000
v -0.025029 0.041894 -0.041894
vn -0.0000 -0.3827 -0.9239
vn -0.0000 -0.9239 -0.3827
vn -0.0000 -0.9239 0.3827
vn -0.0000 -0.3827 0.9239
vn -0.0000 0.3827 0.9239
vn -0.0000 0.9239 0.3827
vn -0.0000 0.9239 -0.3827
vn -0.0000 0.3827 -0.9239
vn 1.0000 -0.0000 -0.0000
vn -0.0000 0.7071 -0.7071
vn -0.0000 -0.7071 -0.7071
vn -1.0000 -0.0000 -0.0000
vt 1.000000 0.750000
vt 1.000000 1.000000
vt 0.875000 1.000000
vt 0.875000 0.750000
vt 0.750000 1.000000
vt 0.750000 0.750000
vt 0.625000 1.000000
vt 0.625000 0.750000
vt 0.500000 1.000000
vt 0.500000 0.750000
vt 0.375000 1.000000
vt 0.375000 0.750000
vt 0.250000 1.000000
vt 0.250000 0.750000
vt 0.130105 0.496255
vt 0.068875 0.348431
vt 0.125000 1.000000
vt 0.125000 0.750000
vt 0.000000 1.000000
vt 0.000000 0.750000
vt 0.277929 0.557485
vt 0.425752 0.496255
vt 0.447635 0.518137
vt 0.277929 0.588431
vt 0.486983 0.348431
vt 0.517929 0.348431
vt 0.425752 0.200608
vt 0.447635 0.178726
vt 0.277929 0.139377
vt 0.277929 0.108431
vt 0.130105 0.200608
vt 0.108223 0.178726
vt 0.037929 0.348431
vt 0.108223 0.518137
vt 0.825195 0.413835
vt 0.758241 0.441569
vt 0.691286 0.413835
vt 0.663553 0.346881
vt 0.691286 0.279927
vt 0.758241 0.252193
vt 0.825195 0.279927
vt 0.852928 0.346881
vt 0.758241 0.498826
vt 0.865682 0.454323
vt 0.906064 0.494705
vt 0.758241 0.555935
vt 0.910186 0.346881
vt 0.967295 0.346881
vt 0.865682 0.239440
vt 0.906064 0.199058
vt 0.758241 0.194936
vt 0.758241 0.137827
vt 0.650799 0.239440
vt 0.610417 0.199058
vt 0.606295 0.346881
vt 0.549187 0.346881
vt 0.650799 0.454323
vt 0.610417 0.494705
vt 0.277929 0.196486
vt 0.385370 0.240990
vt 0.385370 0.455873
vt 0.344883 0.415386
vt 0.372617 0.348431
vt 0.429874 0.348431
vt 0.210975 0.415386
vt 0.170487 0.455873
vt 0.344883 0.281477
vt 0.277929 0.253744
vt 0.210975 0.281477
vt 0.170487 0.240990
vt 0.183241 0.348431
vt 0.125984 0.348431
s 0
usemtl Material.002
f 9/1/1 18/2/1 17/3/1 10/4/1
f 10/4/2 17/3/2 19/5/2 11/6/2
f 11/6/3 19/5/3 20/7/3 12/8/3
f 12/8/4 20/7/4 21/9/4 13/10/4
f 13/10/5 21/9/5 22/11/5 14/12/5
f 14/12/6 22/11/6 23/13/6 15/14/6
f 8/15/3 7/16/3 39/16/3 40/15/3
f 15/14/7 23/13/7 24/17/7 16/18/7
f 16/18/8 24/17/8 18/19/8 9/20/8
f 1/21/9 2/22/9 17/23/9 18/24/9
f 2/22/9 3/25/9 19/26/9 17/23/9
f 3/25/9 4/27/9 20/28/9 19/26/9
f 4/27/9 5/29/9 21/30/9 20/28/9
f 5/29/9 6/31/9 22/32/9 21/30/9
f 6/31/9 7/16/9 23/33/9 22/32/9
f 7/16/9 8/15/9 24/34/9 23/33/9
f 8/15/9 1/21/9 18/24/9 24/34/9
f 25/35/9 26/36/9 32/37/9 31/38/9 30/39/9 29/40/9 28/41/9 27/42/9
f 6/31/1 5/29/1 37/29/1 38/31/1
f 4/27/7 3/25/7 35/25/7 36/27/7
f 2/22/5 1/21/5 34/21/5 33/22/5
f 1/21/4 8/15/4 40/15/4 34/21/4
f 7/16/2 6/31/2 38/31/2 39/16/2
f 5/29/8 4/27/8 36/27/8 37/29/8
f 3/25/6 2/22/6 33/22/6 35/25/6
f 42/43/9 41/44/9 33/45/9 34/46/9
f 41/44/9 43/47/9 35/48/9 33/45/9
f 43/47/9 44/49/9 36/50/9 35/48/9
f 44/49/9 45/51/9 37/52/9 36/50/9
f 45/51/9 46/53/9 38/54/9 37/52/9
f 46/53/9 47/55/9 39/56/9 38/54/9
f 47/55/9 48/57/9 40/58/9 39/56/9
f 48/57/9 42/43/9 34/46/9 40/58/9
f 26/36/9 25/35/9 41/44/9 42/43/9
f 45/59/4 44/60/4 51/60/4 52/59/4
f 41/61/10 25/62/10 57/62/10 50/61/10
f 25/62/6 27/63/6 56/63/6 57/62/6
f 44/60/3 43/64/3 49/64/3 51/60/3
f 32/65/11 48/66/11 55/66/11 62/65/11
f 43/64/2 41/61/2 50/61/2 49/64/2
f 32/37/9 26/36/9 42/43/9 48/57/9
f 57/62/9 56/63/9 49/64/9 50/61/9
f 56/63/9 58/67/9 51/60/9 49/64/9
f 58/67/9 59/68/9 52/59/9 51/60/9
f 59/68/9 60/69/9 53/70/9 52/59/9
f 60/69/9 61/71/9 54/72/9 53/70/9
f 61/71/9 62/65/9 55/66/9 54/72/9
f 27/63/7 28/67/7 58/67/7 56/63/7
f 46/70/5 45/59/5 52/59/5 53/70/5
f 28/67/8 29/68/8 59/68/8 58/67/8
f 47/72/6 46/70/6 53/70/6 54/72/6
f 29/68/1 30/69/1 60/69/1 59/68/1
f 48/66/7 47/72/7 54/72/7 55/66/7
f 30/69/2 31/71/2 61/71/2 60/69/2
f 31/71/3 32/65/3 62/65/3 61/71/3
f 9/1/1 10/4/1 71/3/1 72/2/1
f 10/4/2 11/6/2 73/5/2 71/3/2
f 11/6/3 12/8/3 74/7/3 73/5/3
f 12/8/4 13/10/4 75/9/4 74/7/4
f 13/10/5 14/12/5 76/11/5 75/9/5
f 14/12/6 15/14/6 77/13/6 76/11/6
f 70/15/3 94/15/3 93/16/3 69/16/3
f 15/14/7 16/18/7 78/17/7 77/13/7
f 16/18/8 9/20/8 72/19/8 78/17/8
f 63/21/12 72/24/12 71/23/12 64/22/12
f 64/22/12 71/23/12 73/26/12 65/25/12
f 65/25/12 73/26/12 74/28/12 66/27/12
f 66/27/12 74/28/12 75/30/12 67/29/12
f 67/29/12 75/30/12 76/32/12 68/31/12
f 68/31/12 76/32/12 77/33/12 69/16/12
f 69/16/12 77/33/12 78/34/12 70/15/12
f 70/15/12 78/34/12 72/24/12 63/21/12
f 79/35/12 81/42/12 82/41/12 83/40/12 84/39/12 85/38/12 86/37/12 80/36/12
f 68/31/1 92/31/1 91/29/1 67/29/1
f 66/27/7 90/27/7 89/25/7 65/25/7
f 64/22/5 87/22/5 88/21/5 63/21/5
f 63/21/4 88/21/4 94/15/4 70/15/4
f 69/16/2 93/16/2 92/31/2 68/31/2
f 67/29/8 91/29/8 90/27/8 66/27/8
f 65/25/6 89/25/6 87/22/6 64/22/6
f 96/43/12 88/46/12 87/45/12 95/44/12
f 95/44/12 87/45/12 89/48/12 97/47/12
f 97/47/12 89/48/12 90/50/12 98/49/12
f 98/49/12 90/50/12 91/52/12 99/51/12
f 99/51/12 91/52/12 92/54/12 100/53/12
f 100/53/12 92/54/12 93/56/12 101/55/12
f 101/55/12 93/56/12 94/58/12 102/57/12
f 102/57/12 94/58/12 88/46/12 96/43/12
f 80/36/12 96/43/12 95/44/12 79/35/12
f 99/59/4 106/59/4 105/60/4 98/60/4
f 95/61/10 104/61/10 111/62/10 79/62/10
f 79/62/6 111/62/6 110/63/6 81/63/6
f 98/60/3 105/60/3 103/64/3 97/64/3
f 86/65/11 116/65/11 109/66/11 102/66/11
f 97/64/2 103/64/2 104/61/2 95/61/2
f 86/37/12 102/57/12 96/43/12 80/36/12
f 111/62/12 104/61/12 103/64/12 110/63/12
f 110/63/12 103/64/12 105/60/12 112/67/12
f 112/67/12 105/60/12 106/59/12 113/68/12
f 113/68/12 106/59/12 107/70/12 114/69/12
f 114/69/12 107/70/12 108/72/12 115/71/12
f 115/71/12 108/72/12 109/66/12 116/65/12
f 81/63/7 110/63/7 112/67/7 82/67/7
f 100/70/5 107/70/5 106/59/5 99/59/5
f 82/67/8 112/67/8 113/68/8 83/68/8
f 101/72/6 108/72/6 107/70/6 100/70/6
f 83/68/1 113/68/1 114/69/1 84/69/1
f 102/66/7 109/66/7 108/72/7 101/72/7
f 84/69/2 114/69/2 115/71/2 85/71/2
f 85/71/3 115/71/3 116/65/3 86/65/3
