# Blender 4.3.2
# www.blender.org
mtllib lever(1).mtl
o lever
v -0.150000 0.000000 -0.312530
v 0.034689 0.000000 -0.262578
v -0.150000 -0.156265 -0.270659
v 0.034689 -0.131289 -0.227399
v -0.150000 -0.270659 -0.156265
v 0.034689 -0.227399 -0.131289
v -0.150000 -0.312530 -0.000000
v 0.034689 -0.262578 -0.000000
v -0.150000 -0.270659 0.156265
v 0.034689 -0.227399 0.131289
v -0.150000 -0.156265 0.270659
v 0.034689 -0.131289 0.227399
v -0.150000 0.000000 0.312530
v 0.034689 0.000000 0.262578
v -0.150000 0.156265 0.270659
v 0.034689 0.131289 0.227399
v -0.150000 0.270659 0.156265
v 0.034689 0.227399 0.131289
v -0.150000 0.312530 -0.000000
v 0.034689 0.262578 -0.000000
v -0.150000 0.270659 -0.156265
v 0.034689 0.227399 -0.131289
v -0.150000 0.156265 -0.270659
v 0.034689 0.131289 -0.227399
v 0.034689 -0.156265 -0.270659
v 0.034689 0.000000 -0.312530
v 0.034689 -0.270659 -0.156265
v 0.034689 -0.312530 -0.000000
v 0.034689 -0.270659 0.156265
v 0.034689 -0.156265 0.270659
v 0.034689 0.000000 0.312530
v 0.034689 0.156265 0.270659
v 0.034689 0.270659 0.156265
v 0.034689 0.312530 -0.000000
v 0.034689 0.270659 -0.156265
v 0.034689 0.156265 -0.270659
v 0.066934 -0.131289 -0.227399
v 0.066934 0.000000 -0.262578
v 0.066934 -0.227399 -0.131289
v 0.066934 -0.262578 -0.000000
v 0.066934 -0.227399 0.131289
v 0.066934 -0.131289 0.227399
v 0.066934 0.000000 0.262578
v 0.066934 0.131289 0.227399
v 0.066934 0.227399 0.131289
v 0.066934 0.262578 -0.000000
v 0.066934 0.227399 -0.131289
v 0.066934 0.131289 -0.227399
v -0.055284 0.289695 -0.035524
v -0.055284 1.254774 -0.035524
v -0.028745 0.289695 -0.024532
v -0.028745 1.254774 -0.024532
v -0.017752 0.289695 0.002008
v -0.017752 1.254774 0.002008
v -0.028745 0.289695 0.028547
v -0.028745 1.254774 0.028547
v -0.055284 0.289695 0.039540
v -0.055284 1.254774 0.039540
v -0.081824 0.289695 0.028547
v -0.081824 1.254774 0.028547
v -0.092817 0.289695 0.002008
v -0.092817 1.254774 0.002008
v -0.081824 0.289695 -0.024532
v -0.081824 1.254774 -0.024532
v -0.053965 1.416036 -0.071131
v -0.053966 1.340260 -0.102518
v -0.053966 1.264484 -0.071131
v 0.011658 1.416036 -0.033243
v 0.038841 1.340260 -0.048936
v 0.011658 1.264484 -0.033243
v 0.011658 1.416036 0.042533
v 0.038841 1.340260 0.058227
v 0.011658 1.264484 0.042533
v -0.053965 1.416036 0.080421
v -0.053966 1.340260 0.111809
v -0.053966 1.264484 0.080421
v -0.053966 1.233097 0.004645
v -0.053965 1.447424 0.004645
v -0.119590 1.416036 0.042533
v -0.146772 1.340260 0.058227
v -0.119590 1.264484 0.042533
v -0.119589 1.416036 -0.033243
v -0.146772 1.340260 -0.048936
v -0.119589 1.264484 -0.033243
vn -0.0000 -0.2588 -0.9659
vn -0.0000 -0.7071 -0.7071
vn -0.0000 -0.9659 -0.2588
vn -0.0000 -0.9659 0.2588
vn -0.0000 -0.7071 0.7071
vn -0.0000 -0.2588 0.9659
vn -0.0000 0.2588 0.9659
vn -0.0000 0.7071 0.7071
vn -0.0000 0.9659 0.2588
vn -0.0000 0.9659 -0.2588
vn -0.0000 0.7071 -0.7071
vn -0.0000 0.2588 -0.9659
vn -1.0000 -0.0000 -0.0000
vn 1.0000 -0.0000 -0.0000
vn 0.3827 -0.0000 -0.9239
vn 0.9239 -0.0000 -0.3827
vn 0.9239 -0.0000 0.3827
vn 0.3827 -0.0000 0.9239
vn -0.3827 -0.0000 0.9239
vn -0.9239 -0.0000 0.3827
vn -0.9239 -0.0000 -0.3827
vn -0.3827 -0.0000 -0.9239
vn 0.2157 -0.9021 -0.3737
vn 0.4706 0.3377 -0.8152
vn 0.4706 -0.3377 -0.8152
vn 0.2157 0.9021 -0.3737
vn 0.4315 -0.9021 -0.0000
vn 0.9413 0.3377 -0.0000
vn 0.9413 -0.3377 -0.0000
vn 0.4315 0.9021 -0.0000
vn 0.2157 -0.9021 0.3737
vn 0.4706 0.3377 0.8152
vn 0.4706 -0.3377 0.8152
vn 0.2157 0.9021 0.3737
vn -0.2157 -0.9021 0.3737
vn -0.4706 0.3377 0.8152
vn -0.4706 -0.3377 0.8152
vn -0.2157 0.9021 0.3737
vn -0.4315 -0.9021 -0.0000
vn -0.9413 0.3377 -0.0000
vn -0.9413 -0.3377 -0.0000
vn -0.4315 0.9021 -0.0000
vn -0.2157 0.9021 -0.3737
vn -0.2157 -0.9021 -0.3737
vn -0.4706 0.3377 -0.8152
vn -0.4706 -0.3377 -0.8152
vt 0.042076 0.223152
vt 0.137175 0.223152
vt 0.137175 0.306453
vt 0.042076 0.306453
vt 0.137175 0.389754
vt 0.042076 0.389754
vt 0.137175 0.473055
vt 0.042076 0.473055
vt 0.137175 0.556357
vt 0.042076 0.556357
vt 0.137175 0.639658
vt 0.042076 0.639658
vt 0.137175 0.722959
vt 0.042076 0.722959
vt 0.161441 0.227158
vt 0.256540 0.227158
vt 0.256540 0.310459
vt 0.161441 0.310459
vt 0.256540 0.393760
vt 0.161441 0.393760
vt 0.256540 0.477062
vt 0.161441 0.477062
vt 0.256540 0.560363
vt 0.161441 0.560363
vt 0.324657 0.632948
vt 0.324657 0.702935
vt 0.308054 0.702936
vt 0.308054 0.632948
vt 0.256540 0.643664
vt 0.161441 0.643664
vt 0.256540 0.726965
vt 0.161441 0.726965
vt 0.871830 0.682157
vt 0.788529 0.682157
vt 0.716388 0.640507
vt 0.674738 0.568366
vt 0.674738 0.485064
vt 0.716388 0.412923
vt 0.788529 0.371273
vt 0.871830 0.371273
vt 0.943971 0.412923
vt 0.985622 0.485064
vt 0.985622 0.568366
vt 0.943971 0.640507
vt 0.919516 0.276042
vt 0.954509 0.215431
vt 0.979354 0.222089
vt 0.937703 0.294230
vt 0.954509 0.145444
vt 0.979354 0.138787
vt 0.919516 0.084834
vt 0.937703 0.066646
vt 0.858905 0.049840
vt 0.865562 0.024996
vt 0.788918 0.049840
vt 0.782261 0.024996
vt 0.728307 0.084834
vt 0.710120 0.066646
vt 0.693314 0.145444
vt 0.668469 0.138787
vt 0.693314 0.215431
vt 0.668469 0.222089
vt 0.728307 0.276042
vt 0.710120 0.294230
vt 0.788918 0.311036
vt 0.782261 0.335880
vt 0.858905 0.311036
vt 0.865562 0.335880
vt 0.797925 0.707665
vt 0.867912 0.707665
vt 0.928523 0.742659
vt 0.963517 0.803269
vt 0.963517 0.873256
vt 0.928523 0.933867
vt 0.867912 0.968860
vt 0.797925 0.968860
vt 0.737315 0.933867
vt 0.702321 0.873256
vt 0.702321 0.803269
vt 0.737315 0.742659
vt 0.324657 0.842910
vt 0.324657 0.912897
vt 0.308054 0.912897
vt 0.308054 0.842910
vt 0.324657 0.213026
vt 0.324657 0.283013
vt 0.308054 0.283013
vt 0.308054 0.213026
vt 0.324657 0.562961
vt 0.308054 0.562961
vt 0.324657 0.422987
vt 0.324657 0.492974
vt 0.308054 0.492974
vt 0.308054 0.422987
vt 0.324657 0.772923
vt 0.308054 0.772923
vt 0.324657 0.143039
vt 0.308054 0.143039
vt 0.324657 0.353000
vt 0.308054 0.353000
vt 0.324657 0.073052
vt 0.308054 0.073052
vt 0.494982 0.085453
vt 0.494982 0.582385
vt 0.480191 0.582385
vt 0.480191 0.085453
vt 0.465399 0.582385
vt 0.465399 0.085453
vt 0.450608 0.582385
vt 0.450608 0.085453
vt 0.568939 0.085453
vt 0.568939 0.582385
vt 0.554148 0.582385
vt 0.554148 0.085453
vt 0.539356 0.582385
vt 0.539356 0.085453
vt 0.524565 0.582385
vt 0.524565 0.085453
vt 0.509774 0.582385
vt 0.509774 0.085453
vt 0.571775 0.730333
vt 0.602943 0.758832
vt 0.566290 0.772208
vt 0.406939 0.797092
vt 0.449172 0.797092
vt 0.456638 0.835389
vt 0.417497 0.851253
vt 0.367799 0.812956
vt 0.375264 0.851253
vt 0.599843 0.888197
vt 0.568675 0.859699
vt 0.609893 0.850496
vt 0.534319 0.749842
vt 0.477942 0.868078
vt 0.447626 0.897481
vt 0.387181 0.880656
vt 0.408485 0.913345
vt 0.584761 0.820649
vt 0.534319 0.710824
vt 0.509964 0.890371
vt 0.492912 0.929008
vt 0.430574 0.936119
vt 0.462596 0.958412
vt 0.545899 0.824134
vt 0.548999 0.694768
vt 0.587861 0.691284
vt 0.492912 0.665176
vt 0.509964 0.703814
vt 0.477942 0.726107
vt 0.447626 0.696703
vt 0.462596 0.635773
vt 0.430574 0.658066
vt 0.531218 0.840190
vt 0.531218 0.879208
vt 0.612993 0.721130
vt 0.456638 0.758795
vt 0.417497 0.742932
vt 0.408485 0.680840
vt 0.387181 0.713529
vt 0.563189 0.901574
vt 0.375264 0.742932
vt 0.367799 0.781229
s 0
usemtl Material
f 1/1/1 26/2/1 25/3/1 3/4/1
f 3/4/2 25/3/2 27/5/2 5/6/2
f 5/6/3 27/5/3 28/7/3 7/8/3
f 7/8/4 28/7/4 29/9/4 9/10/4
f 9/10/5 29/9/5 30/11/5 11/12/5
f 11/12/6 30/11/6 31/13/6 13/14/6
f 13/15/7 31/16/7 32/17/7 15/18/7
f 15/18/8 32/17/8 33/19/8 17/20/8
f 17/20/9 33/19/9 34/21/9 19/22/9
f 19/22/10 34/21/10 35/23/10 21/24/10
f 22/25/10 20/26/10 46/27/10 47/28/10
f 21/24/11 35/23/11 36/29/11 23/30/11
f 23/30/12 36/29/12 26/31/12 1/32/12
f 1/33/13 3/34/13 5/35/13 7/36/13 9/37/13 11/38/13 13/39/13 15/40/13 17/41/13 19/42/13 21/43/13 23/44/13
f 2/45/14 4/46/14 25/47/14 26/48/14
f 4/46/14 6/49/14 27/50/14 25/47/14
f 6/49/14 8/51/14 28/52/14 27/50/14
f 8/51/14 10/53/14 29/54/14 28/52/14
f 10/53/14 12/55/14 30/56/14 29/54/14
f 12/55/14 14/57/14 31/58/14 30/56/14
f 14/57/14 16/59/14 32/60/14 31/58/14
f 16/59/14 18/61/14 33/62/14 32/60/14
f 18/61/14 20/63/14 34/64/14 33/62/14
f 20/63/14 22/65/14 35/66/14 34/64/14
f 22/65/14 24/67/14 36/68/14 35/66/14
f 24/67/14 2/45/14 26/48/14 36/68/14
f 37/69/14 38/70/14 48/71/14 47/72/14 46/73/14 45/74/14 44/75/14 43/76/14 42/77/14 41/78/14 40/79/14 39/80/14
f 16/81/7 14/82/7 43/83/7 44/84/7
f 10/85/4 8/86/4 40/87/4 41/88/4
f 24/89/11 22/25/11 47/28/11 48/90/11
f 4/91/1 2/92/1 38/93/1 37/94/1
f 18/95/8 16/81/8 44/84/8 45/96/8
f 12/97/5 10/85/5 41/88/5 42/98/5
f 2/92/12 24/89/12 48/90/12 38/93/12
f 6/99/2 4/91/2 37/94/2 39/100/2
f 20/26/9 18/95/9 45/96/9 46/27/9
f 14/101/6 12/97/6 42/98/6 43/102/6
f 8/86/3 6/99/3 39/100/3 40/87/3
f 49/103/15 50/104/15 52/105/15 51/106/15
f 51/106/16 52/105/16 54/107/16 53/108/16
f 53/108/17 54/107/17 56/109/17 55/110/17
f 55/111/18 56/112/18 58/113/18 57/114/18
f 57/114/19 58/113/19 60/115/19 59/116/19
f 59/116/20 60/115/20 62/117/20 61/118/20
f 61/118/21 62/117/21 64/119/21 63/120/21
f 63/120/22 64/119/22 50/104/22 49/103/22
f 77/121/23 67/122/23 70/123/23
f 66/124/24 65/125/24 68/126/24 69/127/24
f 67/128/25 66/124/25 69/127/25 70/129/25
f 65/130/26 78/131/26 68/132/26
f 77/121/27 70/123/27 73/133/27
f 69/127/28 68/126/28 71/134/28 72/135/28
f 70/136/29 69/127/29 72/135/29 73/137/29
f 68/132/30 78/131/30 71/138/30
f 77/121/31 73/133/31 76/139/31
f 72/135/32 71/134/32 74/140/32 75/141/32
f 73/142/33 72/135/33 75/141/33 76/143/33
f 71/138/34 78/131/34 74/144/34
f 77/121/35 76/145/35 81/146/35
f 75/147/36 74/148/36 79/149/36 80/150/36
f 76/151/37 75/147/37 80/150/37 81/152/37
f 74/153/38 78/131/38 79/154/38
f 77/121/39 81/146/39 84/155/39
f 80/150/40 79/149/40 82/156/40 83/157/40
f 81/158/41 80/150/41 83/157/41 84/159/41
f 79/154/42 78/131/42 82/160/42
f 82/160/43 78/131/43 65/130/43
f 77/121/44 84/155/44 67/122/44
f 83/157/45 82/156/45 65/125/45 66/124/45
f 84/161/46 83/157/46 66/124/46 67/162/46
