# Blender 4.3.2
# www.blender.org
mtllib lever.mtl
o lever
v -0.150000 0.000000 -0.312530
v 0.034689 0.000000 -0.262578
v -0.150000 -0.156265 -0.270659
v 0.034689 -0.131289 -0.227399
v -0.150000 -0.270659 -0.156265
v 0.034689 -0.227399 -0.131289
v -0.150000 -0.312530 -0.000000
v 0.034689 -0.262578 -0.000000
v -0.150000 -0.270659 0.156265
v 0.034689 -0.227399 0.131289
v -0.150000 -0.156265 0.270659
v 0.034689 -0.131289 0.227399
v -0.150000 0.000000 0.312530
v 0.034689 0.000000 0.262578
v -0.150000 0.156265 0.270659
v 0.034689 0.131289 0.227399
v -0.150000 0.270659 0.156265
v 0.034689 0.227399 0.131289
v -0.150000 0.312530 -0.000000
v 0.034689 0.262578 -0.000000
v -0.150000 0.270659 -0.156265
v 0.034689 0.227399 -0.131289
v -0.150000 0.156265 -0.270659
v 0.034689 0.131289 -0.227399
v 0.034689 -0.156265 -0.270659
v 0.034689 0.000000 -0.312530
v 0.034689 -0.270659 -0.156265
v 0.034689 -0.312530 -0.000000
v 0.034689 -0.270659 0.156265
v 0.034689 -0.156265 0.270659
v 0.034689 0.000000 0.312530
v 0.034689 0.156265 0.270659
v 0.034689 0.270659 0.156265
v 0.034689 0.312530 -0.000000
v 0.034689 0.270659 -0.156265
v 0.034689 0.156265 -0.270659
v 0.066934 -0.131289 -0.227399
v 0.066934 0.000000 -0.262578
v 0.066934 -0.227399 -0.131289
v 0.066934 -0.262578 -0.000000
v 0.066934 -0.227399 0.131289
v 0.066934 -0.131289 0.227399
v 0.066934 0.000000 0.262578
v 0.066934 0.131289 0.227399
v 0.066934 0.227399 0.131289
v 0.066934 0.262578 -0.000000
v 0.066934 0.227399 -0.131289
v 0.066934 0.131289 -0.227399
v -0.055284 0.289695 -0.035524
v -0.055284 1.254774 -0.035524
v -0.028745 0.289695 -0.024532
v -0.028745 1.254774 -0.024532
v -0.017752 0.289695 0.002008
v -0.017752 1.254774 0.002008
v -0.028745 0.289695 0.028547
v -0.028745 1.254774 0.028547
v -0.055284 0.289695 0.039540
v -0.055284 1.254774 0.039540
v -0.081824 0.289695 0.028547
v -0.081824 1.254774 0.028547
v -0.092817 0.289695 0.002008
v -0.092817 1.254774 0.002008
v -0.081824 0.289695 -0.024532
v -0.081824 1.254774 -0.024532
v -0.053965 1.416036 -0.071131
v -0.053966 1.340260 -0.102518
v -0.053966 1.264484 -0.071131
v 0.011658 1.416036 -0.033243
v 0.038841 1.340260 -0.048936
v 0.011658 1.264484 -0.033243
v 0.011658 1.416036 0.042533
v 0.038841 1.340260 0.058227
v 0.011658 1.264484 0.042533
v -0.053965 1.416036 0.080421
v -0.053966 1.340260 0.111809
v -0.053966 1.264484 0.080421
v -0.053966 1.233097 0.004645
v -0.053965 1.447424 0.004645
v -0.119590 1.416036 0.042533
v -0.146772 1.340260 0.058227
v -0.119590 1.264484 0.042533
v -0.119589 1.416036 -0.033243
v -0.146772 1.340260 -0.048936
v -0.119589 1.264484 -0.033243
vn -0.0000 -0.2588 -0.9659
vn -0.0000 -0.7071 -0.7071
vn -0.0000 -0.9659 -0.2588
vn -0.0000 -0.9659 0.2588
vn -0.0000 -0.7071 0.7071
vn -0.0000 -0.2588 0.9659
vn -0.0000 0.2588 0.9659
vn -0.0000 0.7071 0.7071
vn -0.0000 0.9659 0.2588
vn -0.0000 0.9659 -0.2588
vn -0.0000 0.7071 -0.7071
vn -0.0000 0.2588 -0.9659
vn -1.0000 -0.0000 -0.0000
vn 1.0000 -0.0000 -0.0000
vn 0.3827 -0.0000 -0.9239
vn 0.9239 -0.0000 -0.3827
vn 0.9239 -0.0000 0.3827
vn 0.3827 -0.0000 0.9239
vn -0.3827 -0.0000 0.9239
vn -0.9239 -0.0000 0.3827
vn -0.9239 -0.0000 -0.3827
vn -0.3827 -0.0000 -0.9239
vn 0.2157 -0.9021 -0.3737
vn 0.4706 0.3377 -0.8152
vn 0.4706 -0.3377 -0.8152
vn 0.2157 0.9021 -0.3737
vn 0.4315 -0.9021 -0.0000
vn 0.9413 0.3377 -0.0000
vn 0.9413 -0.3377 -0.0000
vn 0.4315 0.9021 -0.0000
vn 0.2157 -0.9021 0.3737
vn 0.4706 0.3377 0.8152
vn 0.4706 -0.3377 0.8152
vn 0.2157 0.9021 0.3737
vn -0.2157 -0.9021 0.3737
vn -0.4706 0.3377 0.8152
vn -0.4706 -0.3377 0.8152
vn -0.2157 0.9021 0.3737
vn -0.4315 -0.9021 -0.0000
vn -0.9413 0.3377 -0.0000
vn -0.9413 -0.3377 -0.0000
vn -0.4315 0.9021 -0.0000
vn -0.2157 0.9021 -0.3737
vn -0.2157 -0.9021 -0.3737
vn -0.4706 0.3377 -0.8152
vn -0.4706 -0.3377 -0.8152
vt 1.000000 0.500000
vt 1.000000 1.000000
vt 0.916667 1.000000
vt 0.916667 0.500000
vt 0.833333 1.000000
vt 0.833333 0.500000
vt 0.750000 1.000000
vt 0.750000 0.500000
vt 0.666667 1.000000
vt 0.666667 0.500000
vt 0.583333 1.000000
vt 0.583333 0.500000
vt 0.500000 1.000000
vt 0.500000 0.500000
vt 0.416667 1.000000
vt 0.416667 0.500000
vt 0.333333 1.000000
vt 0.333333 0.500000
vt 0.250000 1.000000
vt 0.250000 0.500000
vt 0.166667 1.000000
vt 0.166667 0.500000
vt 0.075374 0.350820
vt 0.048360 0.250000
vt 0.083333 1.000000
vt 0.083333 0.500000
vt 0.000000 1.000000
vt 0.000000 0.500000
vt 0.750000 0.490000
vt 0.870000 0.457846
vt 0.957846 0.370000
vt 0.990000 0.250000
vt 0.957846 0.130000
vt 0.870000 0.042154
vt 0.750000 0.010000
vt 0.630000 0.042154
vt 0.542154 0.130000
vt 0.510000 0.250000
vt 0.542154 0.370000
vt 0.630000 0.457846
vt 0.250000 0.451640
vt 0.350820 0.424626
vt 0.370000 0.457846
vt 0.250000 0.490000
vt 0.424626 0.350820
vt 0.457846 0.370000
vt 0.451640 0.250000
vt 0.490000 0.250000
vt 0.424626 0.149180
vt 0.457846 0.130000
vt 0.350820 0.075374
vt 0.370000 0.042154
vt 0.250000 0.048360
vt 0.250000 0.010000
vt 0.149180 0.075374
vt 0.130000 0.042154
vt 0.075374 0.149180
vt 0.042154 0.130000
vt 0.010000 0.250000
vt 0.042154 0.370000
vt 0.149180 0.424626
vt 0.130000 0.457846
vt 0.875000 1.000000
vt 0.875000 0.500000
vt 0.750000 1.000000
vt 0.750000 0.500000
vt 0.625000 1.000000
vt 0.625000 0.500000
vt 0.500000 1.000000
vt 0.500000 0.500000
vt 0.375000 1.000000
vt 0.375000 0.500000
vt 0.250000 1.000000
vt 0.250000 0.500000
vt 0.125000 1.000000
vt 0.125000 0.500000
vt 0.000000 1.000000
vt 0.000000 0.500000
vt 0.583333 0.000000
vt 0.666667 0.250000
vt 0.500000 0.250000
vt 0.666667 0.500000
vt 0.666667 0.750000
vt 0.500000 0.750000
vt 0.583333 1.000000
vt 0.416667 0.000000
vt 0.333333 0.250000
vt 0.333333 0.750000
vt 0.333333 0.500000
vt 0.416667 1.000000
vt 0.250000 0.000000
vt 0.166667 0.250000
vt 0.166667 0.750000
vt 0.166667 0.500000
vt 0.083333 0.000000
vt 0.000000 0.250000
vt 0.000000 0.750000
vt 0.083333 1.000000
vt 0.916667 0.000000
vt 1.000000 0.250000
vt 0.833333 0.250000
vt 1.000000 0.500000
vt 1.000000 0.750000
vt 0.833333 0.750000
vt 0.833333 0.500000
vt 0.750000 1.000000
vt 0.750000 0.000000
s 0
f 1/1/1 26/2/1 25/3/1 3/4/1
f 3/4/2 25/3/2 27/5/2 5/6/2
f 5/6/3 27/5/3 28/7/3 7/8/3
f 7/8/4 28/7/4 29/9/4 9/10/4
f 9/10/5 29/9/5 30/11/5 11/12/5
f 11/12/6 30/11/6 31/13/6 13/14/6
f 13/14/7 31/13/7 32/15/7 15/16/7
f 15/16/8 32/15/8 33/17/8 17/18/8
f 17/18/9 33/17/9 34/19/9 19/20/9
f 19/20/10 34/19/10 35/21/10 21/22/10
f 22/23/10 20/24/10 46/24/10 47/23/10
f 21/22/11 35/21/11 36/25/11 23/26/11
f 23/26/12 36/25/12 26/27/12 1/28/12
f 1/29/13 3/30/13 5/31/13 7/32/13 9/33/13 11/34/13 13/35/13 15/36/13 17/37/13 19/38/13 21/39/13 23/40/13
f 2/41/14 4/42/14 25/43/14 26/44/14
f 4/42/14 6/45/14 27/46/14 25/43/14
f 6/45/14 8/47/14 28/48/14 27/46/14
f 8/47/14 10/49/14 29/50/14 28/48/14
f 10/49/14 12/51/14 30/52/14 29/50/14
f 12/51/14 14/53/14 31/54/14 30/52/14
f 14/53/14 16/55/14 32/56/14 31/54/14
f 16/55/14 18/57/14 33/58/14 32/56/14
f 18/57/14 20/24/14 34/59/14 33/58/14
f 20/24/14 22/23/14 35/60/14 34/59/14
f 22/23/14 24/61/14 36/62/14 35/60/14
f 24/61/14 2/41/14 26/44/14 36/62/14
f 37/42/14 38/41/14 48/61/14 47/23/14 46/24/14 45/57/14 44/55/14 43/53/14 42/51/14 41/49/14 40/47/14 39/45/14
f 16/55/7 14/53/7 43/53/7 44/55/7
f 10/49/4 8/47/4 40/47/4 41/49/4
f 24/61/11 22/23/11 47/23/11 48/61/11
f 4/42/1 2/41/1 38/41/1 37/42/1
f 18/57/8 16/55/8 44/55/8 45/57/8
f 12/51/5 10/49/5 41/49/5 42/51/5
f 2/41/12 24/61/12 48/61/12 38/41/12
f 6/45/2 4/42/2 37/42/2 39/45/2
f 20/24/9 18/57/9 45/57/9 46/24/9
f 14/53/6 12/51/6 42/51/6 43/53/6
f 8/47/3 6/45/3 39/45/3 40/47/3
f 49/1/15 50/2/15 52/63/15 51/64/15
f 51/64/16 52/63/16 54/65/16 53/66/16
f 53/66/17 54/65/17 56/67/17 55/68/17
f 55/68/18 56/67/18 58/69/18 57/70/18
f 57/70/19 58/69/19 60/71/19 59/72/19
f 59/72/20 60/71/20 62/73/20 61/74/20
f 61/74/21 62/73/21 64/75/21 63/76/21
f 63/76/22 64/75/22 50/77/22 49/78/22
f 77/79/23 67/80/23 70/81/23
f 66/82/24 65/83/24 68/84/24 69/70/24
f 67/80/25 66/82/25 69/70/25 70/81/25
f 65/83/26 78/85/26 68/84/26
f 77/86/27 70/81/27 73/87/27
f 69/70/28 68/84/28 71/88/28 72/89/28
f 70/81/29 69/70/29 72/89/29 73/87/29
f 68/84/30 78/90/30 71/88/30
f 77/91/31 73/87/31 76/92/31
f 72/89/32 71/88/32 74/93/32 75/94/32
f 73/87/33 72/89/33 75/94/33 76/92/33
f 71/88/34 78/73/34 74/93/34
f 77/95/35 76/92/35 81/96/35
f 75/94/36 74/93/36 79/97/36 80/78/36
f 76/92/37 75/94/37 80/78/37 81/96/37
f 74/93/38 78/98/38 79/97/38
f 77/99/39 81/100/39 84/101/39
f 80/102/40 79/103/40 82/104/40 83/105/40
f 81/100/41 80/102/41 83/105/41 84/101/41
f 79/103/42 78/3/42 82/104/42
f 82/104/43 78/106/43 65/83/43
f 77/107/44 84/101/44 67/80/44
f 83/105/45 82/104/45 65/83/45 66/82/45
f 84/101/46 83/105/46 66/82/46 67/80/46
