# Blender 4.3.2
# www.blender.org
mtllib machine.mtl
o machine
v 1.000000 -0.002573 -0.612946
v 1.000000 -0.193790 -0.612946
v 0.872405 0.125022 0.646410
v 0.577336 -0.501229 0.531185
v -1.000000 -0.002573 -0.612946
v -1.000000 -0.193790 -0.612946
v -0.872405 0.125022 0.646410
v -0.577336 -0.501229 0.531185
v 0.872405 1.294569 0.646410
v -0.872405 1.294569 0.646410
v 0.733347 1.458176 0.378058
v -0.733347 1.458176 0.378058
v -1.000000 -1.528576 -0.612946
v -0.692561 -1.221137 0.646410
v 1.000000 -1.528576 -0.612946
v 0.692561 -1.221137 0.646410
v -1.000000 -0.193790 1.472668
v -1.000000 -0.002573 1.472668
v 1.000000 -0.002573 1.472668
v 1.000000 -0.193790 1.472668
v -1.000000 -0.193790 0.646410
v 1.000000 -0.193790 0.646410
v -1.000000 -1.528576 0.646410
v 1.000000 -1.528576 0.646410
v -0.577336 -0.501229 0.031470
v 0.577336 -0.501229 0.031470
v -0.692561 -1.221137 -0.083756
v 0.692561 -1.221137 -0.083756
v -0.692561 -1.119548 0.646410
v 0.692561 -1.119548 0.646410
v -0.598569 -1.119548 0.010237
v 0.598569 -1.119548 0.010237
v -0.692561 -1.221137 1.064224
v 0.692561 -1.221137 1.064224
v -0.598569 -1.119548 1.059391
v 0.598569 -1.119548 1.059391
v -0.692561 -1.119548 -0.083756
v 0.692561 -1.119548 -0.083756
v 0.598569 -1.119548 0.646410
v -0.598569 -1.119548 0.646410
v -0.692561 -1.119548 1.153383
v 0.692561 -1.119548 1.153383
v -0.692561 -0.953355 -0.083756
v 0.692561 -0.953355 -0.083756
v 0.692561 -0.953355 0.646410
v -0.692561 -0.953355 0.646410
v -0.692561 -0.953355 1.153383
v 0.692561 -0.953355 1.153383
v -0.598569 -0.953355 0.010237
v 0.598569 -0.953355 0.010237
v 0.598569 -0.953355 0.646410
v -0.598569 -0.953355 0.646410
v -0.598569 -0.953355 1.059391
v 0.598569 -0.953355 1.059391
v 1.000000 -0.002573 0.646410
v -1.000000 -0.002573 0.646410
v 0.764922 1.422164 0.646410
v -0.764922 1.422164 0.646410
v 0.766042 0.231386 0.544259
v -0.766042 0.231386 0.544259
v 0.766042 1.188205 0.544259
v -0.766042 1.188205 0.544259
v 0.872405 0.125022 0.544259
v -0.872405 0.125022 0.544259
v 0.872405 1.294569 0.544259
v -0.872405 1.294569 0.544259
v 0.766042 0.231386 -0.093882
v -0.766042 0.231386 -0.093882
v 0.766042 1.188205 -0.093882
v -0.766042 1.188205 -0.093882
v -0.692561 -0.501229 0.646410
v 0.692561 -0.501229 0.646410
v -0.692561 -0.501229 -0.083756
v 0.692561 -0.501229 -0.083756
v -0.577336 -0.444307 0.531185
v 0.577336 -0.444307 0.531185
v -0.577336 -0.444307 0.031470
v 0.577336 -0.444307 0.031470
v 1.000000 1.422164 0.646410
v -1.000000 1.422164 0.646410
v 1.000000 1.422164 -0.612946
v -1.000000 1.422164 -0.612946
v 1.000000 1.685849 -0.612946
v 1.000000 1.685849 0.378058
v -1.000000 1.685849 0.378058
v -1.000000 1.685849 -0.612946
v 0.733347 1.649836 0.378058
v -0.733347 1.649836 0.378058
v -0.764922 1.422164 0.378058
v 0.764922 1.422164 0.378058
v 0.764922 1.685849 0.378058
v -0.764922 1.685849 0.378058
v -0.733347 1.458176 0.429688
v 0.733347 1.458176 0.429688
v 0.733347 1.649836 0.429688
v -0.733347 1.649836 0.429688
v 1.047999 -0.307975 0.706546
v 1.047999 0.145135 0.706546
v 1.000000 -0.643105 -0.612946
v 1.000000 -0.093997 -0.612946
v 1.236812 -0.307975 0.706546
v 1.236812 0.145135 0.706546
v 1.284810 -0.643105 -0.612946
v 1.284810 -0.093997 -0.612946
v 1.000000 -0.643105 -0.193161
v 1.000000 -0.355974 0.226625
v 1.000000 0.193134 0.226625
v 1.000000 -0.093997 -0.193161
v 1.284810 -0.355974 0.226625
v 1.284810 -0.643105 -0.193161
v 1.284810 -0.093997 -0.193161
v 1.284810 0.193134 0.226625
v 1.000000 -0.355974 0.706546
v 1.000000 0.193134 0.706546
v 1.284810 0.193134 0.706546
v 1.284810 -0.355974 0.706546
v 1.110624 -0.245350 0.760112
v 1.110624 0.082510 0.760112
v 1.174186 0.082510 0.760112
v 1.174186 -0.245350 0.760112
v 1.047999 -0.307975 0.760112
v 1.047999 0.145135 0.760112
v 1.236812 0.145135 0.760112
v 1.236812 -0.307975 0.760112
v 1.110624 -0.245350 0.594876
v 1.110624 0.082510 0.594876
v 1.174186 0.082510 0.594876
v 1.174186 -0.245350 0.594876
vn -1.0000 -0.0000 -0.0000
vn -0.0000 -0.0000 -1.0000
vn 1.0000 -0.0000 -0.0000
vn -0.0000 1.0000 -0.0000
vn -0.0000 -1.0000 -0.0000
vn -0.0000 -0.0000 1.0000
vn -0.0000 -0.6596 0.7516
vn -0.0000 0.7133 0.7009
vn -0.0000 0.8254 -0.5646
vn -0.0000 -0.8254 0.5646
vt 0.625000 0.250000
vt 0.625000 0.000000
vt 0.375000 0.000000
vt 0.375000 0.250000
vt 0.375000 0.500000
vt 0.625000 0.500000
vt 0.625000 0.750000
vt 0.375000 0.750000
vt 0.675055 0.579492
vt 0.824945 0.579492
vt 0.824945 0.670507
vt 0.675055 0.670508
vt 0.625000 0.765949
vt 0.625000 0.765949
vt 0.125000 0.500000
vt 0.125000 0.750000
vt 0.375000 0.788430
vt 0.625000 1.000000
vt 0.375000 1.000000
vt 0.375000 0.961570
vt 0.375000 0.802833
vt 0.375000 0.802833
vt 0.375000 0.949821
vt 0.375000 0.800179
vt 0.375000 0.800179
vt 0.375000 0.949821
vt 0.375000 0.800179
vt 0.625000 0.984051
vt 0.625000 0.970755
vt 0.625000 0.970755
vt 0.625000 0.779245
vt 0.625000 0.779245
vt 0.375000 0.947167
vt 0.375000 0.947167
vt 0.821852 0.579492
vt 0.875000 0.500000
vt 0.875000 0.750000
vt 0.678148 0.579492
vt 0.375000 0.166667
vt 0.625000 0.166667
vt 0.375000 0.666667
vt 0.625000 0.666667
vt 0.396853 0.957868
vt 0.396853 0.792132
vt 0.125000 0.666667
vt 0.875000 0.666667
vt 0.875000 0.583333
vt 0.625000 0.583333
vt 0.375000 0.583333
vt 0.125000 0.583333
vt 0.625000 0.083333
vt 0.375000 0.083333
vt 0.603147 0.957868
vt 0.603147 0.792132
vt 0.574635 0.847103
vt 0.574635 0.902897
vt 0.425365 0.902897
vt 0.425365 0.847103
s 0
usemtl Material
f 5/1/1 56/2/1 80/2/1 82/1/1
f 56/2/1 21/3/1 17/3/1 18/2/1
f 21/3/1 56/2/1 5/1/1 6/4/1
f 6/4/2 2/5/2 15/5/2 13/4/2
f 2/5/3 1/6/3 55/7/3 22/8/3
f 6/4/2 5/1/2 1/6/2 2/5/2
f 90/9/4 89/10/4 58/11/4 57/12/4
f 55/7/3 1/6/3 81/6/3 79/7/3
f 1/6/2 5/1/2 82/1/2 81/6/2
f 3/13/1 9/14/1 65/14/1 63/13/1
f 13/15/5 15/5/5 24/8/5 23/16/5
f 16/17/1 72/17/1 74/17/1 28/17/1
f 21/3/1 6/4/1 13/4/1 23/3/1
f 2/5/3 22/8/3 24/8/3 15/5/3
f 20/8/6 19/7/6 18/18/6 17/19/6
f 21/19/5 22/8/5 20/8/5 17/19/5
f 55/7/4 56/18/4 18/18/4 19/7/4
f 22/8/3 55/7/3 19/7/3 20/8/3
f 71/20/6 72/17/6 22/8/6 21/19/6
f 16/17/6 14/20/6 23/19/6 24/8/6
f 14/20/6 71/20/6 21/19/6 23/19/6
f 72/17/6 16/17/6 24/8/6 22/8/6
f 74/17/6 73/20/6 27/20/6 28/17/6
f 28/17/2 27/20/2 37/20/2 38/17/2
f 71/20/3 14/20/3 27/20/3 73/20/3
f 26/21/1 4/22/1 76/22/1 78/21/1
f 40/23/4 39/24/4 32/25/4 31/23/4
f 27/20/1 14/20/1 29/20/1 37/20/1
f 39/24/4 40/23/4 35/26/4 36/27/4
f 16/17/3 28/17/3 38/17/3 30/17/3
f 33/20/7 34/17/7 42/17/7 41/20/7
f 14/20/5 16/17/5 34/17/5 33/20/5
f 16/17/3 30/17/3 42/17/3 34/17/3
f 29/20/1 14/20/1 33/20/1 41/20/1
f 42/17/3 30/17/3 45/17/3 48/17/3
f 31/23/6 32/25/6 50/25/6 49/23/6
f 41/20/6 42/17/6 48/17/6 47/20/6
f 30/17/3 38/17/3 44/17/3 45/17/3
f 36/27/2 35/26/2 53/26/2 54/27/2
f 29/20/1 41/20/1 47/20/1 46/20/1
f 49/23/4 50/25/4 44/17/4 43/20/4
f 50/25/4 51/24/4 45/17/4 44/17/4
f 52/23/4 49/23/4 43/20/4 46/20/4
f 54/27/4 53/26/4 47/20/4 48/17/4
f 53/26/4 52/23/4 46/20/4 47/20/4
f 51/24/4 54/27/4 48/17/4 45/17/4
f 35/26/3 40/23/3 52/23/3 53/26/3
f 37/20/1 29/20/1 46/20/1 43/20/1
f 32/25/1 39/24/1 51/24/1 50/25/1
f 39/24/1 36/27/1 54/27/1 51/24/1
f 38/17/2 37/20/2 43/20/2 44/17/2
f 40/23/3 31/23/3 49/23/3 52/23/3
f 3/13/6 7/28/6 56/18/6 55/7/6
f 10/28/6 58/11/6 80/18/6
f 7/28/6 10/28/6 80/18/6 56/18/6
f 9/14/6 3/13/6 55/7/6 79/7/6
f 62/29/3 60/30/3 68/30/3 70/29/3
f 9/14/5 10/28/5 66/28/5 65/14/5
f 10/28/3 7/28/3 64/28/3 66/28/3
f 7/28/4 3/13/4 63/13/4 64/28/4
f 59/31/6 60/30/6 64/28/6 63/13/6
f 62/29/6 61/32/6 65/14/6 66/28/6
f 60/30/6 62/29/6 66/28/6 64/28/6
f 61/32/6 59/31/6 63/13/6 65/14/6
f 68/30/6 67/31/6 69/32/6 70/29/6
f 60/30/4 59/31/4 67/31/4 68/30/4
f 59/31/1 61/32/1 69/32/1 67/31/1
f 61/32/5 62/29/5 70/29/5 69/32/5
f 8/33/5 4/22/5 72/17/5 71/20/5
f 26/21/5 25/34/5 73/20/5 74/17/5
f 4/22/5 26/21/5 74/17/5 72/17/5
f 25/34/5 8/33/5 71/20/5 73/20/5
f 76/22/5 75/33/5 77/34/5 78/21/5
f 4/22/2 8/33/2 75/33/2 76/22/2
f 8/33/3 25/34/3 77/34/3 75/33/3
f 25/34/6 26/21/6 78/21/6 77/34/6
f 88/35/1 12/35/1 93/35/1 96/35/1
f 82/1/1 80/2/1 85/2/1 86/1/1
f 80/18/8 58/11/8 92/11/8 85/18/8
f 91/12/4 84/7/4 83/6/4
f 92/10/4 86/36/4 85/37/4
f 92/10/4 91/9/4 83/6/4 86/36/4
f 90/9/1 57/12/1 91/9/1
f 81/6/2 82/1/2 86/1/2 83/6/2
f 57/12/8 79/7/8 84/7/8 91/12/8
f 79/7/3 81/6/3 83/6/3 84/7/3
f 58/11/3 89/10/3 92/11/3
f 11/38/6 12/35/6 89/10/6 90/9/6
f 87/38/6 11/38/6 90/9/6 91/9/6
f 88/35/6 87/38/6 91/9/6 92/10/6
f 12/35/6 88/35/6 92/10/6 89/10/6
f 93/35/6 94/38/6 95/38/6 96/35/6
f 11/38/3 87/38/3 95/38/3 94/38/3
f 87/38/4 88/35/4 96/35/4 95/38/4
f 12/35/5 11/38/5 94/38/5 93/35/5
f 58/11/6 10/28/6 9/14/6 57/12/6
f 57/12/6 9/14/6 79/7/6
f 105/39/1 108/40/1 100/1/1 99/4/1
f 99/4/2 100/1/2 104/6/2 103/5/2
f 109/41/3 112/42/3 115/7/3 116/8/3
f 97/43/5 101/44/5 124/44/5 121/43/5
f 106/45/5 109/41/5 116/8/5 113/16/5
f 112/42/4 107/46/4 114/37/4 115/7/4
f 104/6/4 100/36/4 108/47/4 111/48/4
f 111/48/9 108/47/9 107/46/9 112/42/9
f 99/15/5 103/5/5 110/49/5 105/50/5
f 105/50/10 110/49/10 109/41/10 106/45/10
f 103/5/3 104/6/3 111/48/3 110/49/3
f 110/49/3 111/48/3 112/42/3 109/41/3
f 113/3/1 114/2/1 107/51/1 106/52/1
f 106/52/1 107/51/1 108/40/1 105/39/1
f 97/43/6 98/53/6 114/18/6 113/19/6
f 102/54/6 101/44/6 116/8/6 115/7/6
f 101/44/6 97/43/6 113/19/6 116/8/6
f 98/53/6 102/54/6 115/7/6 114/18/6
f 119/55/5 118/56/5 126/56/5 127/55/5
f 98/53/1 97/43/1 121/43/1 122/53/1
f 102/54/4 98/53/4 122/53/4 123/54/4
f 101/44/3 102/54/3 123/54/3 124/44/3
f 117/57/6 118/56/6 122/53/6 121/43/6
f 119/55/6 120/58/6 124/44/6 123/54/6
f 120/58/6 117/57/6 121/43/6 124/44/6
f 118/56/6 119/55/6 123/54/6 122/53/6
f 128/58/6 127/55/6 126/56/6 125/57/6
f 120/58/1 119/55/1 127/55/1 128/58/1
f 117/57/4 120/58/4 128/58/4 125/57/4
f 118/56/3 117/57/3 125/57/3 126/56/3
